<?xml version="1.0" standalone="no"?>
<!DOCTYPE svg PUBLIC "-//W3C//DTD SVG 20010904//EN"
 "http://www.w3.org/TR/2001/REC-SVG-20010904/DTD/svg10.dtd">
<svg version="1.0" xmlns="http://www.w3.org/2000/svg"
 width="1024.000000pt" height="1024.000000pt" viewBox="0 0 1024.000000 1024.000000"
 preserveAspectRatio="xMidYMid meet">

<g transform="translate(0.000000,1024.000000) scale(0.100000,-0.100000)"
fill="#000000" stroke="none">
<path d="M4840 8474 c-281 -33 -472 -69 -667 -125 -466 -134 -901 -366 -1268
-674 -227 -191 -556 -564 -586 -664 -24 -82 44 -168 124 -158 57 8 98 41 195
157 589 709 1350 1113 2237 1191 158 14 454 6 619 -16 579 -77 1106 -302 1571
-671 139 -111 375 -346 487 -488 360 -451 589 -973 673 -1531 96 -645 -29
-1329 -354 -1927 l-62 -115 -192 -6 c-478 -15 -1054 -131 -1494 -303 -384
-149 -778 -386 -1083 -650 -151 -131 -387 -380 -461 -486 -9 -14 -420 80 -442
101 -9 9 95 109 228 222 334 281 694 499 1125 682 169 72 576 228 707 271 46
15 85 31 88 36 9 15 -104 23 -219 16 -290 -19 -715 -126 -1034 -262 -400 -171
-797 -432 -1087 -716 l-131 -127 -143 74 c-162 84 -333 186 -329 196 5 12 142
114 252 188 290 195 647 368 1020 495 141 48 137 41 116 186 -33 231 -147 468
-361 757 -173 232 -223 318 -274 476 l-32 98 -63 -58 c-80 -74 -131 -143 -179
-243 l-39 -80 -30 48 c-124 193 -173 397 -138 569 9 45 23 96 30 115 31 74
144 196 196 213 11 4 20 11 20 17 0 7 -32 9 -98 6 -122 -6 -187 -33 -271 -113
-107 -102 -146 -206 -145 -390 1 -100 6 -135 28 -208 60 -199 190 -400 343
-530 112 -96 171 -113 220 -65 23 23 27 40 37 130 l11 103 131 -175 c144 -194
192 -266 253 -388 47 -93 101 -225 101 -247 0 -9 -43 -27 -122 -53 -420 -135
-881 -374 -1181 -611 l-78 -62 -86 78 c-615 559 -971 1277 -1023 2067 -12 176
-24 216 -74 247 -18 11 -50 19 -75 19 -37 0 -49 -6 -82 -39 -43 -43 -43 -44
-40 -191 12 -531 187 -1087 500 -1585 140 -222 277 -392 481 -595 381 -381
795 -636 1325 -816 373 -127 674 -176 1085 -177 555 -1 1027 108 1525 353 819
402 1426 1080 1720 1921 79 226 152 570 175 829 45 508 -47 1076 -255 1575
-36 85 -185 374 -240 465 -281 464 -682 872 -1126 1143 -427 262 -852 414
-1349 483 -110 15 -624 28 -710 18z m2160 -5318 c-318 -140 -701 -377 -960
-594 -149 -125 -362 -344 -470 -484 -40 -51 -77 -96 -84 -100 -22 -13 -429
-31 -491 -22 l-60 9 195 195 c201 201 325 305 521 436 392 262 855 467 1287
569 134 32 150 30 62 -9z m509 -103 c-133 -137 -298 -293 -379 -359 -327 -266
-669 -458 -1023 -575 -65 -21 -121 -39 -125 -39 -3 0 41 48 98 106 359 362
830 678 1310 878 74 31 149 63 165 70 17 8 32 12 34 10 3 -2 -33 -43 -80 -91z"/>
<path d="M5913 7783 c-23 -8 -14 -44 32 -134 25 -49 45 -93 45 -98 0 -5 -19 1
-43 14 -98 55 -267 100 -329 87 -36 -7 -22 -74 37 -188 39 -76 50 -104 37
-100 -9 3 -59 10 -110 16 -74 9 -96 9 -109 -1 -31 -26 2 -127 68 -210 52 -66
174 -129 252 -129 15 0 27 -2 27 -4 0 -2 -16 -28 -36 -57 -81 -121 -120 -225
-164 -439 -37 -180 -79 -343 -106 -410 -70 -174 -197 -313 -357 -389 -84 -39
-170 -64 -360 -104 l-158 -34 -80 114 c-323 458 -674 766 -1024 896 -171 64
-303 88 -489 88 -466 1 -840 -209 -1083 -607 -81 -133 -117 -233 -117 -327 -1
-76 0 -79 32 -108 41 -37 86 -38 136 -4 21 14 87 77 148 141 171 177 307 283
465 363 253 127 543 159 815 91 238 -60 456 -188 648 -380 85 -84 208 -232
268 -321 l31 -47 -39 -27 c-77 -54 -157 -155 -186 -239 -14 -39 -35 -166 -27
-166 2 0 48 31 101 70 170 122 357 198 637 260 323 72 520 164 656 307 163
170 232 325 309 698 53 253 80 346 129 443 80 160 173 251 309 303 112 42 287
23 375 -42 35 -26 51 -15 66 46 26 103 4 230 -56 335 -59 101 -245 250 -312
250 -27 0 -27 -21 -1 -120 11 -41 20 -79 20 -85 0 -5 -33 22 -74 60 -40 39
-99 85 -129 104 -97 57 -220 98 -254 84z"/>
<path d="M6738 7000 c6 -88 -20 -138 -128 -249 -100 -102 -123 -149 -124 -246
-1 -85 27 -144 91 -188 104 -74 269 -24 324 98 43 94 17 205 -74 317 l-46 56
87 22 c48 12 122 24 165 27 42 3 77 10 77 14 0 17 -73 89 -126 125 -58 38
-138 70 -209 83 l-42 8 5 -67z"/>
<path d="M6376 6989 c-20 -16 -26 -29 -26 -58 0 -58 45 -89 100 -70 66 23 68
103 3 137 -31 17 -47 15 -77 -9z"/>
<path d="M6512 6246 c-25 -134 -13 -214 72 -488 75 -243 98 -362 104 -539 12
-401 -117 -715 -409 -993 -197 -188 -397 -297 -701 -384 -157 -45 -208 -72
-288 -152 -64 -64 -102 -135 -130 -243 -21 -86 -23 -85 87 -63 43 8 93 17 111
20 19 2 35 6 36 8 2 2 15 26 30 53 42 78 88 105 296 172 314 102 541 228 726
406 319 304 484 689 484 1127 0 288 -60 508 -214 790 -35 63 -89 165 -120 227
-31 62 -60 115 -65 117 -4 3 -13 -23 -19 -58z"/>
<path d="M3255 5903 c-205 -24 -376 -105 -526 -250 -171 -165 -273 -357 -315
-596 -20 -119 -18 -325 5 -445 50 -255 170 -502 317 -649 96 -97 129 -84 100
41 -59 256 -67 304 -73 461 -13 368 80 651 282 856 170 172 343 243 590 242
143 0 229 -20 369 -82 38 -18 70 -30 72 -28 2 2 -9 28 -24 58 -39 78 -197 233
-292 286 -154 86 -342 126 -505 106z"/>
</g>
</svg>
